<svg width="80" height="80" viewBox="0 0 80 80" fill="none" xmlns="http://www.w3.org/2000/svg">
<g filter="url(#filter0_d_26_193)">
<path fill-rule="evenodd" clip-rule="evenodd" d="M58.4581 26.662C57.5558 23.1867 54.8488 20.4614 51.3683 19.5243C43.9841 17.5258 36.4012 17.4467 28.6103 19.5587C25.1402 20.4919 22.438 23.204 21.529 26.6663C19.5233 34.2332 19.4655 41.8267 21.506 49.4467C22.4237 52.8946 25.1208 55.5924 28.5798 56.5223C35.9552 58.5144 43.5673 58.5012 51.4189 56.4289C54.9208 55.5122 57.6541 52.7866 58.569 49.2985C60.5454 41.7938 60.4427 34.2471 58.4581 26.662Z" fill="white"/>
</g>
<rect x="30" y="32" width="20" height="2" fill="#002340"/>
<rect x="30" y="37" width="20" height="2" fill="#002340"/>
<rect x="30" y="42" width="20" height="2" fill="#002340"/>
<defs>
<filter id="filter0_d_26_193" x="0" y="0" width="80" height="80" filterUnits="userSpaceOnUse" color-interpolation-filters="sRGB">
<feFlood flood-opacity="0" result="BackgroundImageFix"/>
<feColorMatrix in="SourceAlpha" type="matrix" values="0 0 0 0 0 0 0 0 0 0 0 0 0 0 0 0 0 0 127 0" result="hardAlpha"/>
<feOffset dy="2"/>
<feGaussianBlur stdDeviation="10"/>
<feComposite in2="hardAlpha" operator="out"/>
<feColorMatrix type="matrix" values="0 0 0 0 0.227451 0 0 0 0 0.67451 0 0 0 0 0.94902 0 0 0 0.2 0"/>
<feBlend mode="normal" in2="BackgroundImageFix" result="effect1_dropShadow_26_193"/>
<feBlend mode="normal" in="SourceGraphic" in2="effect1_dropShadow_26_193" result="shape"/>
</filter>
</defs>
</svg>
