<svg width="25" height="26" viewBox="0 0 25 26" fill="none" xmlns="http://www.w3.org/2000/svg">
<path d="M21.0938 0.356934H3.90625C1.74889 0.356934 0 2.10582 0 4.26318V21.4507C0 23.608 1.74889 25.3569 3.90625 25.3569H21.0938C23.2511 25.3569 25 23.608 25 21.4507V4.26318C25 2.10582 23.2511 0.356934 21.0938 0.356934Z" fill="#0088CC"/>
<path d="M6.32806 12.629C9.6835 11.1671 11.921 10.2033 13.0405 9.7377C16.237 8.40817 16.9012 8.17722 17.3341 8.16951C17.4293 8.16791 17.6422 8.19151 17.7801 8.30341C17.8966 8.3979 17.9286 8.52553 17.9439 8.61512C17.9593 8.7047 17.9784 8.90878 17.9632 9.06823C17.79 10.8883 17.0405 15.305 16.6591 17.3434C16.4978 18.206 16.1801 18.4952 15.8725 18.5235C15.2041 18.585 14.6966 18.0818 14.0492 17.6574C13.0361 16.9933 12.4638 16.5799 11.4805 15.9319C10.3441 15.1831 11.0808 14.7715 11.7284 14.0988C11.8979 13.9228 14.8429 11.244 14.8999 11.001C14.9071 10.9706 14.9137 10.8573 14.8464 10.7975C14.7791 10.7377 14.6798 10.7581 14.6081 10.7744C14.5065 10.7975 12.8881 11.8671 9.75304 13.9834C9.29368 14.2988 8.8776 14.4525 8.50481 14.4445C8.09384 14.4356 7.3033 14.2121 6.71561 14.0211C5.99479 13.7868 5.42189 13.6629 5.47178 13.265C5.49776 13.0577 5.78319 12.8457 6.32806 12.629Z" fill="white"/>
</svg>
