<svg width="26" height="26" viewBox="0 0 26 26" fill="none" xmlns="http://www.w3.org/2000/svg">
<path d="M21.696 0H4.01777C1.79882 0 0 1.79882 0 4.01777V21.696C0 23.9149 1.79882 25.7137 4.01777 25.7137H21.696C23.9149 25.7137 25.7137 23.9149 25.7137 21.696V4.01777C25.7137 1.79882 23.9149 0 21.696 0Z" fill="#25D366"/>
<path fill-rule="evenodd" clip-rule="evenodd" d="M17.3568 8.2764C16.1515 7.07107 14.5443 6.42822 12.8569 6.42822C9.32123 6.42822 6.42844 9.32102 6.42844 12.8567C6.42844 13.9816 6.74986 15.1066 7.31235 16.0709L6.42844 19.2851L9.80338 18.4012C10.7676 18.8833 11.8123 19.2047 12.8569 19.2047C16.3925 19.2047 19.2853 16.3119 19.2853 12.7763C19.2853 11.0888 18.5621 9.48173 17.3568 8.2764ZM12.8569 18.1601C11.8926 18.1601 10.9283 17.9191 10.1248 17.4369L9.96407 17.3566L7.95518 17.9191L8.51768 15.9905L8.35696 15.7495C7.79447 14.8655 7.55341 13.9013 7.55341 12.937C7.55341 10.0442 9.96408 7.63355 12.8569 7.63355C14.3033 7.63355 15.589 8.19604 16.6336 9.16031C17.6782 10.2049 18.1603 11.4906 18.1603 12.937C18.1603 15.7495 15.83 18.1601 12.8569 18.1601ZM15.7497 14.1423C15.589 14.062 14.7854 13.6602 14.6247 13.6602C14.464 13.5799 14.3836 13.5799 14.3033 13.7406C14.2229 13.9013 13.9015 14.2227 13.8211 14.3834C13.7408 14.4638 13.6604 14.4638 13.4997 14.4638C13.339 14.3834 12.8569 14.2227 12.214 13.6602C11.7319 13.2584 11.4105 12.6959 11.3301 12.5352C11.2498 12.3745 11.3301 12.2942 11.4105 12.2138C11.4908 12.1335 11.5712 12.0531 11.6515 11.9727C11.7319 11.8924 11.7319 11.812 11.8123 11.7317C11.8926 11.6513 11.8123 11.571 11.8123 11.4906C11.8123 11.4103 11.4908 10.6067 11.3301 10.2853C11.2498 10.0442 11.0891 10.0442 11.0087 10.0442C10.9284 10.0442 10.848 10.0442 10.6873 10.0442C10.6069 10.0442 10.4462 10.0442 10.2855 10.2049C10.1248 10.3656 9.72301 10.7674 9.72301 11.571C9.72301 12.3745 10.2855 13.0977 10.3658 13.2584C10.4462 13.3388 11.4908 15.0263 13.0979 15.6691C14.464 16.2316 14.7051 16.0709 15.0265 16.0709C15.3479 16.0709 15.9907 15.6691 16.0711 15.3477C16.2318 14.9459 16.2318 14.6245 16.1515 14.6245C16.0711 14.2227 15.9104 14.2227 15.7497 14.1423Z" fill="white"/>
</svg>
