<svg width="27" height="26" viewBox="0 0 27 26" fill="none" xmlns="http://www.w3.org/2000/svg">
<path d="M0.873688 4.01777C0.873688 1.79882 2.67251 0 4.89146 0H22.5697C24.7886 0 26.5874 1.79882 26.5874 4.01777V21.696C26.5874 23.9149 24.7886 25.7137 22.5697 25.7137H4.89146C2.67251 25.7137 0.873688 23.9149 0.873688 21.696V4.01777Z" fill="#F05638"/>
<path fill-rule="evenodd" clip-rule="evenodd" d="M17.6489 9.21716C17.6489 11.362 15.9004 13.1105 13.7554 13.1105C11.5873 13.1105 9.83873 11.362 9.83873 9.21716C9.83873 7.07228 11.5873 5.32373 13.7554 5.32373C15.9004 5.32373 17.6489 7.07228 17.6489 9.21716ZM15.3641 9.21716C15.3641 8.33123 14.6414 7.60849 13.7554 7.60849C12.8462 7.60849 12.1235 8.33123 12.1468 9.21716C12.1468 10.1031 12.8696 10.8258 13.7554 10.8258C14.6414 10.8258 15.3641 10.1031 15.3641 9.21716Z" fill="white"/>
<path d="M17.579 15.3721C16.8795 15.815 16.1102 16.1181 15.3175 16.3046L17.5323 18.4495C17.9753 18.8925 17.9753 19.6152 17.5323 20.0582C17.0894 20.5011 16.3667 20.5011 15.9237 20.0582L13.7788 17.9132L11.6339 20.0582C11.4008 20.268 11.121 20.3845 10.8179 20.3845C10.5149 20.3845 10.2351 20.2913 10.002 20.0582C9.55898 19.6152 9.55898 18.8925 10.002 18.4495L12.1702 16.2813C11.3775 16.0947 10.6081 15.7917 9.9087 15.3487C9.37247 15.0224 9.20928 14.323 9.51236 13.7867C9.86207 13.2505 10.5615 13.1107 11.0977 13.437C12.6831 14.4395 14.7579 14.4395 16.3433 13.437C16.8795 13.0873 17.6023 13.2505 17.9287 13.7867C18.2784 14.323 18.1152 15.0456 17.579 15.3721Z" fill="white"/>
</svg>
