<svg width="27" height="26" viewBox="0 0 27 26" fill="none" xmlns="http://www.w3.org/2000/svg">
<path d="M0.955658 4.01777C0.955658 1.79882 2.75448 0 4.97343 0H22.6516C24.8706 0 26.6694 1.79882 26.6694 4.01777V21.696C26.6694 23.9149 24.8706 25.7137 22.6516 25.7137H4.97343C2.75448 25.7137 0.955658 23.9149 0.955658 21.696V4.01777Z" fill="#0077FF"/>
<path d="M7.38409 12.5995C7.38409 9.68958 7.38409 8.23676 8.28408 7.3282C9.19691 6.42822 10.6497 6.42822 13.5554 6.42822H14.0697C16.9796 6.42822 18.4324 6.42822 19.341 7.3282C20.241 8.24104 20.241 9.69387 20.241 12.5995V13.1138C20.241 16.0237 20.241 17.4766 19.341 18.3851C18.4281 19.2851 16.9753 19.2851 14.0697 19.2851H13.5554C10.6455 19.2851 9.19263 19.2851 8.28408 18.3851C7.38409 17.4723 7.38409 16.0195 7.38409 13.1138V12.5995Z" fill="#0077FF"/>
<path d="M14.3841 16.8744C9.99143 16.8744 7.48685 13.8635 7.38409 8.8453H9.59327C9.66391 12.5253 11.2823 14.0822 12.5667 14.4039V8.8453H14.641V12.0171C15.9061 11.882 17.2419 10.4344 17.6914 8.83887H19.7593C19.5907 9.66479 19.2539 10.447 18.7699 11.1366C18.2859 11.8263 17.6652 12.4085 16.9465 12.847C17.7485 13.2469 18.4569 13.8126 19.0247 14.5068C19.5926 15.2011 20.0071 16.008 20.241 16.8744H17.9612C17.4731 15.3497 16.2529 14.1659 14.641 14.005V16.8744H14.3905H14.3841Z" fill="white"/>
</svg>
