<svg width="132" height="60" viewBox="0 0 132 60" fill="none" xmlns="http://www.w3.org/2000/svg">
<rect x="1" y="1" width="58" height="58" rx="29" fill="white"/>
<rect x="1" y="1" width="58" height="58" rx="29" stroke="#E1E2E2" stroke-width="2"/>
<path d="M28.7071 35.7929C29.0976 36.1834 29.0976 36.8166 28.7071 37.2071C28.3166 37.5976 27.6834 37.5976 27.2929 37.2071L21.5 31.4142C20.719 30.6332 20.719 29.3668 21.5 28.5858L27.2929 22.7929C27.6834 22.4024 28.3166 22.4024 28.7071 22.7929C29.0976 23.1834 29.0976 23.8166 28.7071 24.2071L23.9142 29H38C38.5523 29 39 29.4477 39 30C39 30.5523 38.5523 31 38 31H23.9142L28.7071 35.7929Z" fill="#F05638"/>
<rect x="72" width="60" height="60" rx="30" fill="#F05638"/>
<path d="M103.293 35.7929C102.902 36.1834 102.902 36.8166 103.293 37.2071C103.683 37.5976 104.317 37.5976 104.707 37.2071L110.5 31.4142C111.281 30.6332 111.281 29.3668 110.5 28.5858L104.707 22.7929C104.317 22.4024 103.683 22.4024 103.293 22.7929C102.902 23.1834 102.902 23.8166 103.293 24.2071L108.086 29H94C93.4477 29 93 29.4477 93 30C93 30.5523 93.4477 31 94 31H108.086L103.293 35.7929Z" fill="#F7FBFA"/>
</svg>
