<svg width="292" height="497" viewBox="0 0 292 497" fill="none" xmlns="http://www.w3.org/2000/svg">
<path d="M36.8314 290.401C34.4302 287.584 32.9712 281.211 33.8738 271.039C35.4187 253.611 43.2013 244.58 51.9968 242.449C60.7256 240.332 69.7172 239.201 79.8375 237.927L80.8376 237.801C91.0299 236.516 102.359 235.053 113.672 232.059C130.619 227.574 156.922 219.667 165.022 188.858C166.848 181.919 167.485 172.499 167.206 164.012C166.94 155.912 165.759 145.368 161.87 137.409C154.115 121.546 139.518 115.74 128.076 113.327C122.312 112.111 116.578 111.58 111.827 111.22C110.389 111.112 109.085 111.02 107.886 110.937C104.738 110.716 102.308 110.546 100.059 110.244C88.9788 108.766 72.994 105.191 61.8921 98.3404C56.5111 95.0222 53.4544 91.6474 52.0117 88.5308C50.7691 85.8456 49.957 81.7459 52.2749 74.8599C56.0534 63.644 64.4722 56.3092 75.5752 52.4161C87.0152 48.404 100.449 48.46 111.435 51.9197C145.495 62.6509 167.49 96.7228 182.548 140.147C188.743 158.008 193.28 175.954 198.008 194.66L198.008 194.661C200.291 203.689 202.617 212.893 205.197 222.351C209.255 237.232 214.398 254.605 222.122 270.402C229.829 286.165 240.799 301.828 257.36 311.781C269.287 318.946 282.51 321.381 295.569 317.302C308.085 313.391 318.046 304.243 325.716 293.099C333.214 282.205 335.611 267.62 336.153 254.199C336.718 240.185 335.333 224.561 333.023 209.414C328.421 179.244 319.751 148.52 312.999 132.041C303.525 108.918 278.963 39.8102 273.032 16.249L268.985 0.171473L236.83 8.26479L240.877 24.3423C247.362 50.1075 272.588 120.869 282.316 144.613C287.898 158.24 295.963 186.353 300.244 214.415C302.375 228.386 303.47 241.729 303.021 252.863C302.549 264.593 300.436 271.343 298.403 274.298C293.278 281.744 288.749 284.693 285.68 285.651C283.153 286.44 279.694 286.516 274.439 283.358C265.531 278.006 258.176 268.652 251.912 255.838C245.664 243.059 241.188 228.292 237.187 213.626C234.96 205.459 232.805 196.949 230.608 188.268L230.607 188.263L230.607 188.26C225.683 168.809 220.543 148.501 213.877 129.282C198.156 83.9532 171.448 36.0614 121.397 20.2933C103.905 14.7825 83.1143 14.6331 64.6002 21.1251C45.7478 27.738 28.4816 41.6203 20.8511 64.2762C16.207 78.0625 16.6407 91.0442 21.9166 102.453C26.9956 113.43 35.7302 121.162 44.4806 126.56C61.6405 137.148 83.2675 141.455 95.6703 143.112C99.0482 143.563 102.99 143.838 106.452 144.08L106.463 144.08C107.466 144.149 108.429 144.217 109.326 144.286C113.781 144.622 117.71 145.029 121.233 145.772C128.371 147.278 130.862 149.479 132.078 151.972C132.743 153.328 133.831 157.956 134.066 165.101C134.287 171.86 133.656 177.758 132.954 180.427C130.052 191.463 122.297 195.476 105.187 200.005C96.309 202.354 87.0693 203.595 76.691 204.903L75.1001 205.102C65.4651 206.313 54.7834 207.654 44.1849 210.223C15.8646 217.088 3.03207 243.419 0.844314 268.11C-0.163849 279.476 -0.154317 298.125 11.5974 311.912C24.1655 326.657 41.2302 334.234 57.3777 336.818C80.5466 340.525 102.671 342.623 125.708 343.907C138.161 344.602 150.736 345.65 163.05 347.141C163.83 347.235 164.702 347.326 165.461 347.406L165.905 347.452C166.829 347.55 167.694 347.644 168.558 347.756C169.325 347.855 170.032 347.961 170.676 348.073L170.644 348.116C168.486 351.021 164.893 353.821 162.206 355.36C152.498 360.917 141.615 363.974 128.349 367.702C126.851 368.124 125.323 368.552 123.763 368.994C109.275 373.103 92.2385 378.331 77.3075 389.674C64.1188 399.693 48.5939 417.756 52.0052 443.131C54.2029 459.479 64.5873 470.897 74.7249 478.189C84.8992 485.507 96.5488 489.997 105.464 492.38C137.346 500.904 170.028 494.057 196.648 488.48L196.65 488.48C198.182 488.159 199.695 487.842 201.186 487.532C233.548 480.816 263.395 464.275 289.874 449.6L289.877 449.599C292.114 448.359 294.328 447.132 296.518 445.925L311.038 437.923L295.035 408.882L280.514 416.884C278.564 417.959 276.626 419.03 274.695 420.097C247.208 435.291 221.646 449.421 194.448 455.065L192.449 455.48C163.639 461.466 138.079 466.776 114.027 460.346C107.721 458.66 100.081 455.581 94.0878 451.27C88.0581 446.934 85.3999 442.666 84.8685 438.713C83.7908 430.696 88.197 423.043 97.3666 416.079C106.824 408.894 118.34 404.999 132.809 400.896C134.303 400.472 135.84 400.045 137.412 399.606C150.125 396.065 165.156 391.878 178.68 384.138C184.063 381.056 191.62 375.48 197.257 367.898C202.917 360.282 208.512 347.756 202.734 333.655C198.063 322.253 187.453 318.179 181.716 316.595C176.667 315.199 170.966 314.624 168.227 314.348C167.72 314.296 167.314 314.255 167.032 314.221C153.903 312.634 140.607 311.529 127.555 310.801C105.377 309.563 84.4162 307.563 62.6166 304.075C52.5828 302.47 43.282 297.967 36.8314 290.401Z" fill="#F05638" fill-opacity="0.1"/>
</svg>
